<svg xmlns="http://www.w3.org/2000/svg" viewBox="0 0 240 380">
  <!-- Background -->
  <rect width="240" height="380" fill="#f7f5f2"/>

  <!-- Hair (profile, swept back) -->
  <path d="M116 22 Q126 14 142 16 Q154 20 158 32 Q158 24 150 18 Q138 12 122 14 Z" fill="#2e221a"/>

  <!-- Head (right-facing profile) -->
  <path d="M116 22 Q140 20 154 34 Q160 46 156 60 Q150 72 136 74 Q122 74 116 64 Q110 54 112 40 Q112 28 116 22" fill="#e8d5c0" stroke="#2d2826" stroke-width="1.5"/>
  <!-- Nose -->
  <path d="M154 46 Q158 50 156 56 Q154 60 150 60" fill="none" stroke="#c4a98a" stroke-width="1.2"/>
  <!-- Lips hint -->
  <path d="M148 62 Q152 64 150 66" fill="none" stroke="#c4a98a" stroke-width="1"/>
  <!-- Chin -->
  <path d="M136 74 Q128 76 120 72" fill="none" stroke="#c4a98a" stroke-width="0.8"/>
  <!-- Eye -->
  <ellipse cx="146" cy="42" rx="4" ry="3" fill="none" stroke="#2d2826" stroke-width="1"/>
  <ellipse cx="147" cy="42" rx="2" ry="2" fill="#2d2826"/>

  <!-- Neck (side — angled slightly forward) -->
  <path d="M126 73 L122 90 L134 90 L136 74" fill="#e8d5c0" stroke="#2d2826" stroke-width="1"/>

  <!-- Turtleneck collar (side view — shows depth/roll) -->
  <path d="M112 88 Q120 93 134 90 L136 104 Q120 110 110 104 Z" fill="#6b5c9e" stroke="#2d2826" stroke-width="1.2"/>
  <!-- Collar inner edge (the fold) -->
  <path d="M113 92 Q120 96 133 92" fill="none" stroke="#4a3d6e" stroke-width="0.8"/>
  <path d="M112 97 Q120 101 134 97" fill="none" stroke="#4a3d6e" stroke-width="0.8"/>
  <path d="M111 101 Q120 105 135 101" fill="none" stroke="#4a3d6e" stroke-width="0.8"/>

  <!-- Sweater body (side — shows silhouette depth) -->
  <!-- Back edge -->
  <path d="M110 120 Q104 158 102 198 Q101 228 104 258 L138 258 Q144 228 144 198 Q144 158 140 120 L136 104 Q120 110 110 104 Z" fill="#6b5c9e" stroke="#2d2826" stroke-width="1.6"/>
  <!-- Chest protrusion (subtle) -->
  <path d="M140 120 Q146 138 146 155 Q146 172 140 182" fill="none" stroke="#2d2826" stroke-width="0.8"/>

  <!-- Body rib lines (slightly angled for perspective) -->
  <line x1="103" y1="130" x2="141" y2="130" stroke="#4a3d6e" stroke-width="0.6" opacity="0.6"/>
  <line x1="102" y1="145" x2="142" y2="145" stroke="#4a3d6e" stroke-width="0.6" opacity="0.6"/>
  <line x1="102" y1="160" x2="143" y2="160" stroke="#4a3d6e" stroke-width="0.6" opacity="0.6"/>
  <line x1="101" y1="175" x2="143" y2="175" stroke="#4a3d6e" stroke-width="0.6" opacity="0.6"/>
  <line x1="101" y1="190" x2="143" y2="190" stroke="#4a3d6e" stroke-width="0.6" opacity="0.6"/>
  <line x1="101" y1="205" x2="143" y2="205" stroke="#4a3d6e" stroke-width="0.6" opacity="0.6"/>
  <line x1="102" y1="220" x2="143" y2="220" stroke="#4a3d6e" stroke-width="0.6" opacity="0.6"/>
  <line x1="102" y1="235" x2="142" y2="235" stroke="#4a3d6e" stroke-width="0.6" opacity="0.6"/>
  <line x1="103" y1="250" x2="141" y2="250" stroke="#4a3d6e" stroke-width="0.6" opacity="0.6"/>

  <!-- Near arm (right, visible in profile) -->
  <path d="M140 120 Q152 142 156 172 Q160 198 156 228 L147 226 Q150 200 147 174 Q144 148 132 128" fill="#6b5c9e" stroke="#2d2826" stroke-width="1.3"/>
  <line x1="148" y1="182" x2="156" y2="182" stroke="#4a3d6e" stroke-width="0.5" opacity="0.6"/>
  <line x1="148" y1="197" x2="157" y2="197" stroke="#4a3d6e" stroke-width="0.5" opacity="0.6"/>
  <line x1="148" y1="212" x2="157" y2="212" stroke="#4a3d6e" stroke-width="0.5" opacity="0.6"/>
  <ellipse cx="151" cy="233" rx="7" ry="10" fill="#e8d5c0" stroke="#2d2826" stroke-width="1.2"/>

  <!-- Trousers (side view) -->
  <!-- Front leg (visible) -->
  <path d="M104 258 L108 344 L126 344 L122 302 L138 302 L134 344 L138 258 Z" fill="#1c1b26" stroke="#2d2826" stroke-width="1.3"/>
  <!-- Crease line down front -->
  <line x1="122" y1="258" x2="122" y2="302" stroke="#2d2826" stroke-width="0.6"/>

  <!-- Side shoe (profile shape) -->
  <path d="M102 344 Q100 357 100 363 Q106 369 118 368 Q122 364 120 356 L112 344" fill="#19181f" stroke="#2d2826" stroke-width="1.1"/>
  <!-- Heel -->
  <path d="M100 358 Q98 364 100 368 Q104 370 106 366" fill="#19181f" stroke="#2d2826" stroke-width="0.8"/>

  <!-- Back shoe -->
  <path d="M130 344 L128 356 Q128 363 132 366 Q140 368 146 364 Q148 358 146 344" fill="#19181f" stroke="#2d2826" stroke-width="1.1"/>

</svg>
